<svg width="1436" height="531" viewBox="0 0 1436 531" fill="none" xmlns="http://www.w3.org/2000/svg">
<g filter="url(#filter0_f_4:81)">
<path d="M21.4942 482.517C18.2948 401.604 -2.83504 353.089 -13 338.946V0H1426.26C1430.59 112.817 1436.66 339.143 1426.26 341.906C1415.86 344.669 1405.93 399.959 1402.26 427.259C1404.26 443.442 1397.76 479.392 1394.26 495.344C1389.86 522.578 1370.1 527.742 1360.77 526.92C1351.57 524.946 1345.94 507.35 1344.27 498.798C1341.47 491.693 1339.77 440.251 1339.27 415.418C1343.67 394.894 1328.77 377.264 1320.78 371.015C1296.78 345.359 1278.12 360.325 1271.78 371.015C1260.59 374.962 1251.79 448.967 1248.79 485.477C1239.59 518.237 1221.96 499.127 1214.29 485.477C1207.1 477.978 1205.3 452.75 1205.3 441.073C1210.09 427.259 1201.3 412.622 1196.3 407.031C1189.9 404.663 1183.3 403.413 1180.8 403.084C1176.4 403.873 1170.63 390.256 1168.3 383.349C1157.1 370.324 1145.31 377.922 1140.81 383.349C1134.41 389.269 1113.81 413.116 1104.31 424.299C1087.92 453.901 1071.82 436.633 1065.82 424.299C1061.82 422.72 1044.49 370.357 1036.32 344.373C996.731 274.117 960.503 315.099 947.339 344.373C941.74 345.952 937.341 403.577 935.841 432.193C920.243 483.898 900.68 453.737 892.848 432.193C887.249 423.509 887.516 396.341 888.349 383.842C890.748 375.159 884.683 362.134 881.35 356.707C865.353 334.999 848.355 333.519 841.857 335.492C833.058 333.124 819.86 348.649 814.361 356.707C804.363 364.601 789.199 359.996 782.867 356.707C772.868 353.944 748.706 325.954 737.874 312.304C713.478 295.726 691.049 303.423 682.883 309.343C672 317.235 651 340 636 356.707C628.401 362.627 621.06 362.627 617.394 360.161C601.397 348.714 579.067 338.946 569.902 335.492C547.506 330.756 540.907 343.715 540.407 350.787C535.608 355.128 533.742 391.078 533.408 408.511C536.208 437.718 526.909 464.755 521.91 474.623C512.312 488.437 501.166 480.379 496.5 474.623C494 474.623 481.084 442.718 479.417 428.246C479.417 361.937 462.42 329.243 453.922 321.184C432.725 289.214 406.43 307.863 395.931 321.184C389.5 323.5 358.771 394.532 344.94 432.686C336.141 450.053 321.277 439.922 314.945 432.686C303.5 423 283.45 397.163 275.952 381.869C269.153 371.212 257.788 374.797 252.955 377.922C248.123 381.047 233.292 397.163 223.96 403.577C217.561 407.524 213.962 435.482 212.962 448.967C213.762 469.097 206.63 486.299 202.964 492.384C186.567 506.593 170 498.5 166.47 492.384C164.5 492.384 159.804 472.32 159.471 463.275C163.07 399.334 145.64 373.482 136.475 368.548C118.878 356.312 104.48 358.845 99.4811 361.641C75.0852 364.009 73.6521 440.58 75.9851 478.57C78.7846 491.2 73.1522 505.54 69.9861 511.132C54.3887 528.499 35.4919 518.368 27.9931 511.132C23.1939 507.185 21.6609 490.41 21.4942 482.517Z" fill="#F4C3DA"/>
</g>
<defs>
<filter id="filter0_f_4:81" x="-17" y="-4" width="1453" height="535" filterUnits="userSpaceOnUse" color-interpolation-filters="sRGB">
<feFlood flood-opacity="0" result="BackgroundImageFix"/>
<feBlend mode="normal" in="SourceGraphic" in2="BackgroundImageFix" result="shape"/>
<feGaussianBlur stdDeviation="2" result="effect1_foregroundBlur_4:81"/>
</filter>
</defs>
</svg>
